<?xml version="1.0" standalone="no"?>
<!DOCTYPE svg PUBLIC "-//W3C//DTD SVG 20010904//EN"
 "http://www.w3.org/TR/2001/REC-SVG-20010904/DTD/svg10.dtd">
<svg version="1.0" xmlns="http://www.w3.org/2000/svg"
 width="1000.000000pt" height="1000.000000pt" viewBox="0 0 1000.000000 1000.000000"
 preserveAspectRatio="xMidYMid meet">
<metadata>
Created by potrace 1.14, written by Peter Selinger 2001-2017
</metadata>
<g transform="translate(0.000000,1000.000000) scale(0.100000,-0.100000)"
fill="#000000" stroke="none">
<path d="M4965 9930 c-423 -85 -751 -303 -836 -554 l-17 -50 -134 -56 c-217
-91 -449 -216 -683 -370 -557 -365 -741 -527 -1126 -988 -155 -186 -256 -332
-315 -457 -31 -64 -55 -101 -79 -119 -62 -48 -135 -128 -172 -190 -20 -34 -82
-131 -138 -216 -174 -265 -231 -375 -289 -559 -61 -192 -106 -528 -106 -786
l0 -118 -60 -54 c-54 -49 -60 -59 -60 -94 0 -50 32 -84 94 -101 l45 -12 6 -55
c56 -483 211 -1229 300 -1439 13 -31 41 -100 61 -152 148 -387 441 -766 749
-972 143 -95 380 -208 571 -271 209 -69 305 -93 816 -202 l77 -16 27 -60 c17
-37 43 -74 67 -94 30 -26 37 -38 30 -47 -22 -27 -163 -351 -226 -518 -139
-372 -228 -731 -297 -1203 -28 -195 -33 -178 48 -175 l67 3 8 75 c61 601 192
1097 432 1643 l48 108 31 -52 c66 -110 67 -64 -14 -464 -41 -198 -86 -418
-101 -490 -14 -71 -39 -231 -53 -355 -15 -124 -34 -274 -42 -335 -8 -60 -14
-115 -14 -122 0 -9 20 -13 74 -13 l74 0 12 133 c32 351 65 594 106 772 29 126
41 186 89 449 19 104 35 203 35 219 0 16 3 27 8 25 4 -2 31 -12 60 -23 31 -12
52 -26 52 -35 0 -8 -9 -103 -21 -210 -24 -227 -20 -306 16 -340 28 -26 80 -39
158 -40 66 0 103 16 140 59 36 43 43 151 28 456 -10 186 -10 257 -2 279 l12
29 27 -26 c15 -15 42 -32 61 -38 30 -11 40 -8 124 34 51 25 93 44 95 42 1 -1
-4 -54 -12 -116 -34 -254 -46 -382 -52 -544 l-7 -170 29 -31 c24 -26 39 -32
92 -37 83 -9 158 8 193 43 45 45 50 85 47 400 -2 160 0 290 4 290 4 0 9 -4 13
-9 3 -5 42 -24 87 -41 63 -24 98 -32 149 -32 38 0 72 3 77 6 5 3 12 -32 16
-77 4 -45 13 -125 21 -177 8 -52 26 -239 40 -415 14 -176 32 -378 40 -450 8
-72 19 -177 25 -235 6 -58 14 -124 16 -148 l5 -42 65 0 c58 0 64 2 64 20 0 12
-11 146 -24 298 -14 152 -30 347 -36 432 -28 379 -83 797 -109 823 -5 5 19 35
64 79 41 38 88 91 105 117 27 44 35 49 77 55 25 3 52 6 59 6 40 0 131 -287
290 -915 83 -327 118 -502 146 -733 l23 -182 72 0 c42 0 73 4 73 10 0 33 -46
329 -71 460 -89 461 -279 1130 -375 1321 l-23 46 137 5 c75 3 223 18 327 32
883 124 887 125 1111 197 204 65 371 152 634 330 268 181 494 382 680 604 196
235 320 489 394 812 55 239 58 275 47 630 -24 738 -58 1442 -77 1593 -37 297
-127 711 -216 995 -33 106 -178 402 -266 543 -29 46 -50 88 -46 93 3 5 15 9
27 9 30 0 153 60 229 112 81 54 199 174 249 251 49 76 78 167 88 280 27 289
-83 543 -342 794 -234 226 -449 335 -751 379 -167 25 -341 6 -526 -56 -152
-50 -359 -166 -476 -266 l-51 -43 -105 53 c-315 158 -696 284 -1014 334 -72
12 -109 22 -114 32 -43 93 -65 125 -125 186 -145 146 -350 215 -634 213 -88 0
-167 -7 -226 -19z m494 -175 c98 -22 217 -83 264 -134 49 -55 48 -65 -7 -57
-25 4 -145 7 -268 7 -308 0 -529 -22 -776 -77 -106 -24 -321 -82 -364 -99 -34
-13 -18 12 45 72 153 147 363 244 642 299 94 18 363 12 464 -11z m466 -390
c456 -68 920 -240 1313 -485 316 -197 717 -550 967 -850 176 -213 495 -672
589 -852 85 -160 149 -374 220 -728 64 -318 76 -458 106 -1195 11 -264 25
-611 31 -772 14 -333 11 -369 -50 -613 -91 -369 -227 -606 -511 -891 -226
-226 -423 -378 -730 -559 -145 -86 -241 -129 -392 -175 -211 -64 -273 -75
-773 -146 -77 -11 -198 -28 -270 -39 -145 -22 -330 -40 -418 -40 l-58 0 42 48
c22 27 55 75 73 108 l31 58 260 121 c373 174 894 461 1090 600 224 159 469
559 559 911 64 247 90 483 83 729 -7 206 -24 346 -58 470 -25 95 -186 554
-236 675 -58 142 -177 368 -269 510 -301 467 -559 764 -914 1054 -96 79 -187
149 -202 157 -15 8 -123 80 -240 160 -310 212 -371 243 -783 391 -242 87 -265
93 -475 138 -366 78 -550 92 -923 70 -306 -18 -411 -34 -642 -96 -479 -129
-915 -320 -1254 -551 l-94 -64 38 48 c186 231 515 580 694 735 122 106 326
260 381 288 21 11 108 64 192 118 174 112 242 152 418 247 405 218 939 379
1440 434 134 15 635 6 765 -14z m2365 -115 c212 -43 342 -112 520 -277 209
-193 317 -446 281 -659 -15 -90 -51 -151 -137 -237 -55 -55 -87 -77 -164 -113
-52 -24 -116 -55 -143 -69 -26 -14 -51 -25 -57 -25 -5 0 -51 55 -102 122 -51
67 -109 142 -128 168 -58 76 -509 510 -620 597 -160 126 -259 200 -328 245
-34 23 -59 45 -55 49 23 22 261 134 338 158 219 71 386 82 595 41z m-3772
-1196 c444 -58 957 -221 1285 -410 106 -61 383 -242 461 -302 119 -90 381
-307 450 -372 291 -273 658 -771 836 -1135 95 -194 125 -269 232 -585 82 -243
94 -294 109 -477 20 -239 -6 -502 -76 -779 -42 -163 -80 -262 -162 -422 -141
-275 -266 -424 -448 -536 -38 -24 -119 -75 -180 -113 -221 -139 -666 -373
-892 -470 -10 -4 -13 9 -12 49 1 40 -5 67 -24 105 -15 28 -32 53 -38 55 -6 2
8 17 32 32 175 115 352 252 447 345 130 128 414 435 479 517 212 270 363 618
363 836 0 95 -28 242 -74 391 -19 61 -42 141 -51 177 -29 113 -116 371 -162
479 -81 191 -221 414 -378 606 -87 105 -341 359 -483 484 -109 95 -324 253
-436 321 -162 98 -409 217 -588 284 -150 56 -495 142 -668 167 -110 16 -140
18 -308 29 -224 13 -643 -9 -847 -46 -44 -8 -136 -23 -205 -34 -238 -39 -484
-112 -705 -210 -139 -61 -385 -180 -395 -190 -3 -3 -38 -25 -77 -48 -121 -71
-221 -154 -364 -299 -139 -142 -208 -236 -245 -332 -74 -194 -118 -320 -146
-416 -30 -107 -54 -165 -70 -165 -18 0 22 403 58 573 36 170 75 282 154 444
55 113 95 176 192 304 67 89 129 164 137 166 9 2 31 29 49 58 56 92 126 159
261 248 406 269 826 452 1346 587 374 97 801 128 1143 84z m-1897 -1240 c-125
-251 -343 -334 -429 -164 l-22 45 77 39 c136 69 408 184 412 174 2 -5 -15 -48
-38 -94z m2516 -136 c4 -7 26 -87 49 -177 54 -212 101 -306 238 -483 118 -152
174 -207 300 -290 77 -51 94 -58 137 -58 47 0 49 -1 50 -27 0 -16 2 -54 5 -85
4 -33 2 -58 -3 -58 -48 0 -239 98 -338 174 -201 153 -316 300 -394 500 -52
136 -61 185 -64 364 -2 144 2 169 20 140z m-3266 -300 c-22 -73 -48 -164 -56
-202 -13 -57 -24 -78 -64 -123 -92 -103 -190 -307 -233 -481 l-22 -93 -61 -28
c-60 -28 -192 -68 -199 -60 -3 2 25 38 61 79 175 199 294 454 319 681 4 35 13
77 22 94 17 34 260 280 268 272 3 -3 -13 -65 -35 -139z m-26 -429 c-55 -317
-59 -619 -11 -816 l28 -113 -30 -37 c-16 -21 -51 -74 -78 -118 l-49 -80 -18
90 c-23 109 -27 431 -8 565 19 140 69 327 123 463 28 70 52 126 53 125 2 -2
-3 -37 -10 -79z m3340 -184 c104 -147 263 -278 466 -384 109 -57 171 -77 267
-87 120 -11 175 24 188 120 l7 46 69 -70 c85 -86 150 -136 247 -188 l73 -40
-93 -6 c-52 -3 -224 -10 -384 -16 -515 -18 -522 -18 -559 -34 -47 -20 -66 -58
-45 -94 18 -32 66 -51 133 -51 34 -1 47 -5 43 -13 -72 -170 -87 -244 -87 -417
0 -141 8 -194 46 -312 42 -128 104 -219 215 -312 95 -79 201 -109 313 -88 186
34 334 188 418 433 29 85 32 107 36 248 5 172 -10 282 -54 397 -13 36 -24 67
-24 69 0 2 30 4 68 4 85 1 151 16 178 41 20 19 21 19 95 -15 41 -19 114 -48
164 -65 49 -18 90 -33 92 -34 1 -2 20 -63 43 -137 55 -184 67 -275 51 -407
-39 -333 -136 -503 -529 -922 -159 -169 -549 -521 -717 -648 -176 -132 -202
-141 -415 -152 -128 -6 -152 -10 -201 -34 -49 -23 -76 -28 -198 -35 -156 -9
-193 -23 -199 -76 -6 -48 20 -73 94 -89 36 -9 68 -17 70 -20 3 -3 -5 -25 -17
-49 -20 -42 -29 -49 -143 -103 -66 -32 -146 -66 -178 -75 l-56 -18 -42 43 -42
43 8 63 c4 35 8 75 9 87 1 14 15 35 33 49 53 40 40 108 -23 127 -11 3 -55 10
-98 16 -42 5 -92 17 -110 27 -21 11 -71 19 -142 24 -196 14 -642 127 -922 235
-479 184 -765 407 -837 653 -39 133 -40 295 -4 487 10 55 9 67 -16 145 -15 46
-33 95 -41 109 -18 33 -77 228 -116 382 -26 106 -79 386 -79 422 0 7 21 27 48
44 26 17 80 61 120 99 39 37 72 66 72 63 0 -14 -41 -131 -60 -173 -26 -58 -20
-97 18 -128 33 -26 79 -23 252 14 81 17 124 22 145 16 16 -5 50 -9 74 -9 31 0
42 -4 38 -12 -72 -170 -87 -244 -87 -417 0 -197 41 -355 125 -481 113 -170
276 -257 435 -233 97 15 171 52 246 124 77 75 142 183 186 311 29 85 32 107
36 248 5 172 -10 282 -54 397 -13 36 -24 67 -24 69 0 2 30 4 68 4 80 1 150 15
174 37 10 9 20 30 23 47 6 30 8 31 53 28 58 -4 208 28 299 64 299 118 498 375
593 763 l23 93 46 -89 c25 -49 68 -120 96 -158z m-1145 -346 c-44 -130 -61
-192 -57 -214 l5 -32 -191 -7 c-106 -3 -299 -11 -429 -17 -130 -6 -242 -9
-249 -7 -6 2 13 20 43 39 97 65 258 198 374 311 109 105 114 109 123 87 23
-62 99 -93 191 -78 63 10 162 56 210 97 24 21 36 26 38 17 2 -8 -24 -96 -58
-196z m-2571 -311 c-1 -182 1 -203 41 -338 57 -193 86 -251 137 -275 41 -20
82 -13 111 18 12 12 43 71 70 130 27 59 52 110 55 113 3 3 22 -26 41 -64 20
-39 49 -86 66 -105 16 -19 30 -38 30 -43 0 -11 82 -94 93 -94 5 0 35 -17 68
-37 l58 -38 37 -110 c20 -60 50 -134 67 -164 l30 -54 -16 -71 c-47 -202 -54
-300 -32 -413 20 -100 48 -181 96 -274 44 -87 72 -122 121 -154 51 -34 189
-142 203 -159 13 -16 134 -97 148 -100 7 -1 77 -34 157 -73 80 -39 197 -90
260 -114 63 -23 133 -50 155 -59 46 -21 153 -51 270 -75 44 -10 83 -19 88 -22
4 -2 -8 -19 -25 -37 -93 -93 -138 -167 -138 -226 0 -12 -7 -23 -15 -26 -15 -6
-186 25 -315 56 -41 11 -131 31 -199 45 -303 64 -709 230 -900 368 -101 73
-261 224 -343 325 -143 175 -275 404 -353 617 -43 114 -145 541 -174 725 -45
281 -63 453 -68 636 l-6 191 49 12 c27 7 65 21 84 31 19 11 39 19 43 20 4 0 7
-73 6 -162z m4070 -2592 c25 -14 25 -14 -27 -36 -100 -43 -203 -186 -231 -318
-6 -29 -11 -88 -11 -130 0 -128 58 -225 165 -273 22 -10 50 -19 63 -19 57 0
-43 -58 -116 -67 -71 -8 -155 27 -214 89 -62 65 -73 100 -72 228 1 90 5 119
32 201 54 163 155 291 257 327 43 15 126 14 154 -2z m-1270 -23 c-134 -91
-256 -347 -260 -546 l-1 -42 -13 30 c-19 40 -19 177 0 248 35 136 116 244 225
302 65 34 95 39 49 8z m170 -54 c26 -34 26 -33 -12 -214 -14 -66 -28 -169 -32
-230 -10 -162 -21 -203 -66 -248 -69 -70 -119 -43 -170 91 -39 104 -15 279 59
427 43 87 151 206 186 204 6 0 22 -14 35 -30z m1211 -39 c12 -8 10 -14 -13
-38 -31 -33 -67 -118 -67 -160 0 -55 32 -124 77 -168 l45 -42 -20 -45 c-23
-51 -53 -75 -105 -84 -48 -7 -79 2 -117 33 -68 58 -85 143 -55 272 18 78 36
111 83 164 63 70 128 96 172 68z m-688 -393 c-3 -71 1 -113 17 -177 33 -136
57 -761 31 -809 -6 -12 -26 -21 -54 -25 -59 -9 -95 1 -102 29 -3 12 4 118 15
236 34 369 46 512 46 584 l0 70 -39 -2 c-23 -2 -78 -24 -143 -58 -60 -31 -111
-51 -118 -47 -7 4 -26 19 -44 34 -30 26 -31 29 -31 112 0 47 3 86 8 86 4 0 20
-16 35 -35 42 -52 74 -48 237 29 74 35 137 65 140 65 3 1 4 -41 2 -92z m-552
-662 l0 -255 -26 -10 c-14 -6 -43 -10 -64 -10 -64 0 -74 25 -67 168 3 64 11
162 18 217 l11 100 52 21 c28 12 57 22 64 23 9 1 12 -56 12 -254z"/>
<path d="M4442 3564 c-31 -21 -26 -64 8 -81 39 -20 309 -18 338 3 28 20 30 69
3 84 -11 5 -86 10 -173 10 -124 0 -158 -3 -176 -16z"/>
</g>
</svg>
